<svg width="70" height="70" viewBox="0 0 70 70" fill="none" xmlns="http://www.w3.org/2000/svg">
<g filter="url(#filter0_bi_551_4702)">
<rect width="70" height="70" rx="15" fill="url(#paint0_linear_551_4702)" fill-opacity="0.2"/>
<rect x="0.25" y="0.25" width="69.5" height="69.5" rx="14.75" stroke="url(#paint1_linear_551_4702)" stroke-width="0.5"/>
</g>
<path d="M50.9999 32.9795L46.4145 32.3066C46.1538 31.3339 45.7657 30.4 45.2602 29.5293L48.0303 25.8044L44.7713 22.5419L41.0491 25.3159C40.1788 24.8101 39.2455 24.4217 38.2735 24.1608L37.6015 19.5713L32.9935 19.5715L32.3212 24.1619C31.3497 24.4225 30.4171 24.8109 29.5479 25.3171L25.8652 22.5417L22.5647 25.8044L25.3368 29.5304C24.831 30.4008 24.4428 31.3344 24.1825 32.307L19.5946 32.9794L19.5713 37.534L24.1821 38.2644C24.4423 39.2366 24.8305 40.1699 25.3364 41.0398L22.5635 44.7651L25.823 48.0277L29.5451 45.2539C30.4153 45.76 31.3487 46.1487 32.3208 46.4099L32.9929 50.9999H37.5396L38.2735 46.4102C39.2459 46.1498 40.1793 45.7609 41.0491 45.2539L44.7713 48.0275L48.0308 44.7651L45.2598 41.041C45.7652 40.1704 46.1533 39.2368 46.4141 38.2644L50.9996 37.5915L50.9999 32.9795ZM35.2981 40.5588C32.3227 40.5588 30.0273 37.882 30.0273 35.2857C30.0273 32.3066 32.3208 30.0123 35.2981 30.0123C38.2754 30.0123 40.5665 32.3066 40.5669 35.2857C40.5674 38.2648 38.2735 40.5588 35.2981 40.5588Z" fill="url(#paint2_linear_551_4702)"/>
<defs>
<filter id="filter0_bi_551_4702" x="-5" y="-5" width="80" height="80" filterUnits="userSpaceOnUse" color-interpolation-filters="sRGB">
<feFlood flood-opacity="0" result="BackgroundImageFix"/>
<feGaussianBlur in="BackgroundImage" stdDeviation="2.5"/>
<feComposite in2="SourceAlpha" operator="in" result="effect1_backgroundBlur_551_4702"/>
<feBlend mode="normal" in="SourceGraphic" in2="effect1_backgroundBlur_551_4702" result="shape"/>
<feColorMatrix in="SourceAlpha" type="matrix" values="0 0 0 0 0 0 0 0 0 0 0 0 0 0 0 0 0 0 127 0" result="hardAlpha"/>
<feOffset dx="2" dy="2"/>
<feGaussianBlur stdDeviation="2.5"/>
<feComposite in2="hardAlpha" operator="arithmetic" k2="-1" k3="1"/>
<feColorMatrix type="matrix" values="0 0 0 0 1 0 0 0 0 1 0 0 0 0 1 0 0 0 0.15 0"/>
<feBlend mode="normal" in2="shape" result="effect2_innerShadow_551_4702"/>
</filter>
<linearGradient id="paint0_linear_551_4702" x1="-2" y1="-2" x2="81.5" y2="73.5" gradientUnits="userSpaceOnUse">
<stop stop-color="white" stop-opacity="0.4"/>
<stop offset="1" stop-color="white"/>
</linearGradient>
<linearGradient id="paint1_linear_551_4702" x1="1.5" y1="-8.5" x2="70" y2="72" gradientUnits="userSpaceOnUse">
<stop stop-color="#FCB045"/>
<stop offset="0.395949" stop-color="#FCB045" stop-opacity="0.03"/>
<stop offset="0.744924" stop-color="#FCB045" stop-opacity="0"/>
<stop offset="1" stop-color="#FCB045" stop-opacity="0"/>
</linearGradient>
<linearGradient id="paint2_linear_551_4702" x1="12.7616" y1="13.8096" x2="74.0473" y2="69.3334" gradientUnits="userSpaceOnUse">
<stop offset="0.369906" stop-color="#FCB045"/>
<stop offset="1" stop-color="#FD1D1D"/>
</linearGradient>
</defs>
</svg>
