<svg width="70" height="70" viewBox="0 0 70 70" fill="none" xmlns="http://www.w3.org/2000/svg">
<g filter="url(#filter0_bi_551_4693)">
<rect width="70" height="70" rx="15" fill="url(#paint0_linear_551_4693)" fill-opacity="0.2"/>
<rect x="0.25" y="0.25" width="69.5" height="69.5" rx="14.75" stroke="url(#paint1_linear_551_4693)" stroke-width="0.5"/>
</g>
<path d="M51.125 30.0625C50.2465 27.9832 48.973 26.0942 47.375 24.5C45.7808 22.902 43.8918 21.6285 41.8125 20.75C39.6523 19.8359 37.3633 19.375 35 19.375C32.6367 19.375 30.3477 19.8359 28.1875 20.75C26.1082 21.6285 24.2192 22.902 22.625 24.5C21.027 26.0942 19.7535 27.9832 18.875 30.0625C17.9609 32.2227 17.5 34.5117 17.5 36.875C17.5 42.0586 19.7773 46.9414 23.7461 50.2773L23.8125 50.332C24.0391 50.5195 24.3242 50.625 24.6172 50.625H45.3867C45.6797 50.625 45.9648 50.5195 46.1914 50.332L46.2578 50.2773C50.2227 46.9414 52.5 42.0586 52.5 36.875C52.5 34.5117 52.0352 32.2227 51.125 30.0625ZM44.7422 47.6562H25.2578C23.7484 46.2953 22.5421 44.6322 21.717 42.7748C20.892 40.9174 20.4667 38.9074 20.4688 36.875C20.4688 32.9922 21.9805 29.3438 24.7266 26.6016C27.4727 23.8555 31.1211 22.3438 35 22.3438C38.8828 22.3438 42.5312 23.8555 45.2734 26.6016C48.0195 29.3477 49.5312 32.9961 49.5312 36.875C49.5312 41 47.793 44.9023 44.7422 47.6562ZM39.3555 31.4648C39.2967 31.4067 39.2174 31.3741 39.1348 31.3741C39.0521 31.3741 38.9728 31.4067 38.9141 31.4648L35.6133 34.7656C34.8828 34.5703 34.0742 34.7578 33.5 35.332C33.2966 35.535 33.1353 35.7761 33.0252 36.0416C32.9151 36.307 32.8584 36.5915 32.8584 36.8789C32.8584 37.1663 32.9151 37.4508 33.0252 37.7162C33.1353 37.9817 33.2966 38.2228 33.5 38.4258C33.703 38.6292 33.9441 38.7905 34.2095 38.9006C34.475 39.0107 34.7595 39.0674 35.0469 39.0674C35.3342 39.0674 35.6188 39.0107 35.8842 38.9006C36.1496 38.7905 36.3907 38.6292 36.5938 38.4258C36.8658 38.1545 37.0614 37.8163 37.1609 37.4452C37.2603 37.0742 37.2601 36.6834 37.1602 36.3125L40.4609 33.0117C40.582 32.8906 40.582 32.6914 40.4609 32.5703L39.3555 31.4648ZM34.1406 27.5H35.8594C36.0312 27.5 36.1719 27.3594 36.1719 27.1875V24.0625C36.1719 23.8906 36.0312 23.75 35.8594 23.75H34.1406C33.9688 23.75 33.8281 23.8906 33.8281 24.0625V27.1875C33.8281 27.3594 33.9688 27.5 34.1406 27.5ZM44.2969 36.0156V37.7344C44.2969 37.9062 44.4375 38.0469 44.6094 38.0469H47.7344C47.9062 38.0469 48.0469 37.9062 48.0469 37.7344V36.0156C48.0469 35.8438 47.9062 35.7031 47.7344 35.7031H44.6094C44.4375 35.7031 44.2969 35.8438 44.2969 36.0156ZM44.793 28.3125L43.5781 27.0977C43.5194 27.0395 43.4401 27.0069 43.3574 27.0069C43.2748 27.0069 43.1955 27.0395 43.1367 27.0977L40.9258 29.3086C40.8676 29.3673 40.835 29.4466 40.835 29.5293C40.835 29.612 40.8676 29.6913 40.9258 29.75L42.1406 30.9648C42.2617 31.0859 42.4609 31.0859 42.582 30.9648L44.793 28.7539C44.9141 28.6328 44.9141 28.4336 44.793 28.3125ZM26.8789 27.0977C26.8202 27.0395 26.7409 27.0069 26.6582 27.0069C26.5755 27.0069 26.4962 27.0395 26.4375 27.0977L25.2227 28.3125C25.1645 28.3712 25.1319 28.4505 25.1319 28.5332C25.1319 28.6159 25.1645 28.6952 25.2227 28.7539L27.4336 30.9648C27.5547 31.0859 27.7539 31.0859 27.875 30.9648L29.0898 29.75C29.2109 29.6289 29.2109 29.4297 29.0898 29.3086L26.8789 27.0977ZM25.2344 35.7031H22.1094C21.9375 35.7031 21.7969 35.8438 21.7969 36.0156V37.7344C21.7969 37.9062 21.9375 38.0469 22.1094 38.0469H25.2344C25.4062 38.0469 25.5469 37.9062 25.5469 37.7344V36.0156C25.5469 35.8438 25.4062 35.7031 25.2344 35.7031Z" fill="url(#paint2_linear_551_4693)"/>
<defs>
<filter id="filter0_bi_551_4693" x="-5" y="-5" width="80" height="80" filterUnits="userSpaceOnUse" color-interpolation-filters="sRGB">
<feFlood flood-opacity="0" result="BackgroundImageFix"/>
<feGaussianBlur in="BackgroundImage" stdDeviation="2.5"/>
<feComposite in2="SourceAlpha" operator="in" result="effect1_backgroundBlur_551_4693"/>
<feBlend mode="normal" in="SourceGraphic" in2="effect1_backgroundBlur_551_4693" result="shape"/>
<feColorMatrix in="SourceAlpha" type="matrix" values="0 0 0 0 0 0 0 0 0 0 0 0 0 0 0 0 0 0 127 0" result="hardAlpha"/>
<feOffset dx="2" dy="2"/>
<feGaussianBlur stdDeviation="2.5"/>
<feComposite in2="hardAlpha" operator="arithmetic" k2="-1" k3="1"/>
<feColorMatrix type="matrix" values="0 0 0 0 1 0 0 0 0 1 0 0 0 0 1 0 0 0 0.15 0"/>
<feBlend mode="normal" in2="shape" result="effect2_innerShadow_551_4693"/>
</filter>
<linearGradient id="paint0_linear_551_4693" x1="-2" y1="-2" x2="81.5" y2="73.5" gradientUnits="userSpaceOnUse">
<stop stop-color="white" stop-opacity="0.4"/>
<stop offset="1" stop-color="white"/>
</linearGradient>
<linearGradient id="paint1_linear_551_4693" x1="1.5" y1="-8.5" x2="70" y2="72" gradientUnits="userSpaceOnUse">
<stop stop-color="#FCB045"/>
<stop offset="0.395949" stop-color="#FCB045" stop-opacity="0.03"/>
<stop offset="0.744924" stop-color="#FCB045" stop-opacity="0"/>
<stop offset="1" stop-color="#FCB045" stop-opacity="0"/>
</linearGradient>
<linearGradient id="paint2_linear_551_4693" x1="9.91646" y1="13.646" x2="71.1447" y2="75.7744" gradientUnits="userSpaceOnUse">
<stop offset="0.369906" stop-color="#FCB045"/>
<stop offset="1" stop-color="#FD1D1D"/>
</linearGradient>
</defs>
</svg>
