<svg width="70" height="70" viewBox="0 0 70 70" fill="none" xmlns="http://www.w3.org/2000/svg">
<g filter="url(#filter0_bi_551_4718)">
<rect width="70" height="70" rx="15" fill="url(#paint0_linear_551_4718)" fill-opacity="0.2"/>
<rect x="0.25" y="0.25" width="69.5" height="69.5" rx="14.75" stroke="url(#paint1_linear_551_4718)" stroke-width="0.5"/>
</g>
<g clip-path="url(#clip0_551_4718)">
<path d="M27.857 22.4286H42.1427V27.5714H44.9999V21.8571C44.9999 20.2857 43.7141 19.0143 42.1427 19.0143L27.857 19C26.2856 19 24.9999 20.2857 24.9999 21.8571V27.5714H27.857V22.4286ZM39.8713 41.2714L46.4284 34.7143L39.8713 28.1571L37.857 30.1857L42.3856 34.7143L37.857 39.2429L39.8713 41.2714ZM32.1427 39.2429L27.6141 34.7143L32.1427 30.1857L30.1284 28.1571L23.5713 34.7143L30.1284 41.2714L32.1427 39.2429ZM42.1427 47H27.857V41.8571H24.9999V47.5714C24.9999 49.1429 26.2856 50.4286 27.857 50.4286H42.1427C43.7141 50.4286 44.9999 49.1429 44.9999 47.5714V41.8571H42.1427V47Z" fill="url(#paint2_linear_551_4718)"/>
</g>
<defs>
<filter id="filter0_bi_551_4718" x="-5" y="-5" width="80" height="80" filterUnits="userSpaceOnUse" color-interpolation-filters="sRGB">
<feFlood flood-opacity="0" result="BackgroundImageFix"/>
<feGaussianBlur in="BackgroundImage" stdDeviation="2.5"/>
<feComposite in2="SourceAlpha" operator="in" result="effect1_backgroundBlur_551_4718"/>
<feBlend mode="normal" in="SourceGraphic" in2="effect1_backgroundBlur_551_4718" result="shape"/>
<feColorMatrix in="SourceAlpha" type="matrix" values="0 0 0 0 0 0 0 0 0 0 0 0 0 0 0 0 0 0 127 0" result="hardAlpha"/>
<feOffset dx="2" dy="2"/>
<feGaussianBlur stdDeviation="2.5"/>
<feComposite in2="hardAlpha" operator="arithmetic" k2="-1" k3="1"/>
<feColorMatrix type="matrix" values="0 0 0 0 1 0 0 0 0 1 0 0 0 0 1 0 0 0 0.15 0"/>
<feBlend mode="normal" in2="shape" result="effect2_innerShadow_551_4718"/>
</filter>
<linearGradient id="paint0_linear_551_4718" x1="-2" y1="-2" x2="81.5" y2="73.5" gradientUnits="userSpaceOnUse">
<stop stop-color="white" stop-opacity="0.4"/>
<stop offset="1" stop-color="white"/>
</linearGradient>
<linearGradient id="paint1_linear_551_4718" x1="1.5" y1="-8.5" x2="70" y2="72" gradientUnits="userSpaceOnUse">
<stop stop-color="#FCB045"/>
<stop offset="0.395949" stop-color="#FCB045" stop-opacity="0.03"/>
<stop offset="0.744924" stop-color="#FCB045" stop-opacity="0"/>
<stop offset="1" stop-color="#FCB045" stop-opacity="0"/>
</linearGradient>
<linearGradient id="paint2_linear_551_4718" x1="18.6188" y1="13.2383" x2="75.2071" y2="50.5242" gradientUnits="userSpaceOnUse">
<stop offset="0.369906" stop-color="#FCB045"/>
<stop offset="1" stop-color="#FD1D1D"/>
</linearGradient>
<clipPath id="clip0_551_4718">
<rect width="40" height="40" fill="white" transform="translate(15 15)"/>
</clipPath>
</defs>
</svg>
