<svg width="70" height="70" viewBox="0 0 70 70" fill="none" xmlns="http://www.w3.org/2000/svg">
<g filter="url(#filter0_bi_551_4713)">
<rect width="70" height="70" rx="15" fill="url(#paint0_linear_551_4713)" fill-opacity="0.2"/>
<rect x="0.25" y="0.25" width="69.5" height="69.5" rx="14.75" stroke="url(#paint1_linear_551_4713)" stroke-width="0.5"/>
</g>
<path d="M42.6513 27.3484C41.9481 26.6454 40.9944 26.2505 40.0001 26.2505C39.0057 26.2505 38.0521 26.6454 37.3488 27.3484L36.7676 27.9284L38.5351 29.6959L39.1163 29.1159C39.3521 28.8882 39.6678 28.7622 39.9956 28.7651C40.3233 28.7679 40.6368 28.8994 40.8686 29.1312C41.1004 29.3629 41.2318 29.6764 41.2347 30.0042C41.2375 30.3319 41.1115 30.6477 40.8838 30.8834L36.7676 34.9997L38.5351 36.7672L42.6513 32.6509C43.3543 31.9477 43.7493 30.9941 43.7493 29.9997C43.7493 29.0053 43.3543 28.0517 42.6513 27.3484Z" fill="url(#paint2_linear_551_4713)"/>
<path d="M30.8839 40.8837C30.6482 41.1114 30.3324 41.2374 30.0047 41.2345C29.6769 41.2317 29.3634 41.1002 29.1317 40.8684C28.8999 40.6367 28.7684 40.3232 28.7656 39.9954C28.7627 39.6677 28.8887 39.3519 29.1164 39.1162L33.2327 34.9999L31.4652 33.2324L27.3489 37.3487C26.9908 37.6946 26.7051 38.1084 26.5086 38.5659C26.312 39.0234 26.2086 39.5155 26.2042 40.0134C26.1999 40.5113 26.2948 41.0051 26.4834 41.466C26.6719 41.9269 26.9504 42.3456 27.3025 42.6977C27.6545 43.0498 28.0732 43.3282 28.5341 43.5168C28.995 43.7053 29.4888 43.8002 29.9867 43.7959C30.4846 43.7915 30.9767 43.6881 31.4342 43.4916C31.8917 43.295 32.3055 43.0093 32.6514 42.6512L33.2327 42.0712L31.4652 40.3037L30.8839 40.8837Z" fill="url(#paint3_linear_551_4713)"/>
<path d="M32.6511 27.3489C31.9417 26.6779 30.9985 26.31 30.0221 26.3236C29.0457 26.3372 28.1131 26.7311 27.4226 27.4216C26.7321 28.1121 26.3382 29.0447 26.3246 30.0211C26.311 30.9975 26.6788 31.9407 27.3499 32.6501L27.9299 33.2314L29.6974 31.4639L29.1174 30.8826C28.8897 30.6469 28.7637 30.3311 28.7665 30.0034C28.7694 29.6756 28.9008 29.3621 29.1326 29.1304C29.3643 28.8986 29.6779 28.7671 30.0056 28.7643C30.3334 28.7614 30.6491 28.8874 30.8849 29.1151L34.9999 33.2326L36.7674 31.4651L32.6511 27.3489Z" fill="url(#paint4_linear_551_4713)"/>
<path d="M42.6512 37.3488L42.0712 36.7676L40.3037 38.5351L40.8837 39.1163C41.1114 39.3521 41.2374 39.6678 41.2345 39.9956C41.2317 40.3233 41.1002 40.6368 40.8684 40.8686C40.6367 41.1004 40.3232 41.2318 39.9954 41.2347C39.6677 41.2375 39.3519 41.1115 39.1162 40.8838L34.9999 36.7676L33.2324 38.5351L37.3487 42.6513C38.0559 43.3344 39.0032 43.7124 39.9864 43.7039C40.9697 43.6953 41.9102 43.3009 42.6055 42.6056C43.3008 41.9104 43.6952 40.9698 43.7037 39.9866C43.7122 39.0033 43.3343 38.0561 42.6512 37.3488Z" fill="url(#paint5_linear_551_4713)"/>
<path d="M35 53.7499C34.7786 53.75 34.5612 53.6914 34.37 53.5799L19.37 44.8299C19.1813 44.7198 19.0247 44.5621 18.9159 44.3726C18.8071 44.1831 18.7499 43.9684 18.75 43.7499V26.2499C18.7499 26.0314 18.8071 25.8167 18.9159 25.6272C19.0247 25.4377 19.1813 25.28 19.37 25.1699L34.37 16.4199C34.5612 16.3083 34.7786 16.2495 35 16.2495C35.2214 16.2495 35.4388 16.3083 35.63 16.4199L50.63 25.1699L49.37 27.3299L35 18.9474L21.25 26.9674V43.0324L35 51.0536L48.75 43.0324V33.7499H51.25V43.7499C51.2501 43.9684 51.1929 44.1831 51.0841 44.3726C50.9753 44.5621 50.8187 44.7198 50.63 44.8299L35.63 53.5799C35.4388 53.6914 35.2214 53.75 35 53.7499Z" fill="url(#paint6_linear_551_4713)"/>
<defs>
<filter id="filter0_bi_551_4713" x="-5" y="-5" width="80" height="80" filterUnits="userSpaceOnUse" color-interpolation-filters="sRGB">
<feFlood flood-opacity="0" result="BackgroundImageFix"/>
<feGaussianBlur in="BackgroundImage" stdDeviation="2.5"/>
<feComposite in2="SourceAlpha" operator="in" result="effect1_backgroundBlur_551_4713"/>
<feBlend mode="normal" in="SourceGraphic" in2="effect1_backgroundBlur_551_4713" result="shape"/>
<feColorMatrix in="SourceAlpha" type="matrix" values="0 0 0 0 0 0 0 0 0 0 0 0 0 0 0 0 0 0 127 0" result="hardAlpha"/>
<feOffset dx="2" dy="2"/>
<feGaussianBlur stdDeviation="2.5"/>
<feComposite in2="hardAlpha" operator="arithmetic" k2="-1" k3="1"/>
<feColorMatrix type="matrix" values="0 0 0 0 1 0 0 0 0 1 0 0 0 0 1 0 0 0 0.15 0"/>
<feBlend mode="normal" in2="shape" result="effect2_innerShadow_551_4713"/>
</filter>
<linearGradient id="paint0_linear_551_4713" x1="-2" y1="-2" x2="81.5" y2="73.5" gradientUnits="userSpaceOnUse">
<stop stop-color="white" stop-opacity="0.4"/>
<stop offset="1" stop-color="white"/>
</linearGradient>
<linearGradient id="paint1_linear_551_4713" x1="1.5" y1="-8.5" x2="70" y2="72" gradientUnits="userSpaceOnUse">
<stop stop-color="#FCB045"/>
<stop offset="0.395949" stop-color="#FCB045" stop-opacity="0.03"/>
<stop offset="0.744924" stop-color="#FCB045" stop-opacity="0"/>
<stop offset="1" stop-color="#FCB045" stop-opacity="0"/>
</linearGradient>
<linearGradient id="paint2_linear_551_4713" x1="35.2548" y1="24.3225" x2="53.4587" y2="35.2713" gradientUnits="userSpaceOnUse">
<stop offset="0.369906" stop-color="#FCB045"/>
<stop offset="1" stop-color="#FD1D1D"/>
</linearGradient>
<linearGradient id="paint3_linear_551_4713" x1="24.6812" y1="31.2958" x2="42.9854" y2="42.3297" gradientUnits="userSpaceOnUse">
<stop offset="0.369906" stop-color="#FCB045"/>
<stop offset="1" stop-color="#FD1D1D"/>
</linearGradient>
<linearGradient id="paint4_linear_551_4713" x1="24.0615" y1="25.0566" x2="36.9581" y2="42.7165" gradientUnits="userSpaceOnUse">
<stop offset="0.369906" stop-color="#FCB045"/>
<stop offset="1" stop-color="#FD1D1D"/>
</linearGradient>
<linearGradient id="paint5_linear_551_4713" x1="30.9636" y1="35.4959" x2="43.9154" y2="53.2101" gradientUnits="userSpaceOnUse">
<stop offset="0.369906" stop-color="#FCB045"/>
<stop offset="1" stop-color="#FD1D1D"/>
</linearGradient>
<linearGradient id="paint6_linear_551_4713" x1="11.7081" y1="9.37468" x2="83.0928" y2="65.4243" gradientUnits="userSpaceOnUse">
<stop offset="0.369906" stop-color="#FCB045"/>
<stop offset="1" stop-color="#FD1D1D"/>
</linearGradient>
</defs>
</svg>
