<svg width="70" height="70" viewBox="0 0 70 70" fill="none" xmlns="http://www.w3.org/2000/svg">
<g filter="url(#filter0_bi_551_4683)">
<rect width="70" height="70" rx="15" fill="url(#paint0_linear_551_4683)" fill-opacity="0.2"/>
<rect x="0.25" y="0.25" width="69.5" height="69.5" rx="14.75" stroke="url(#paint1_linear_551_4683)" stroke-width="0.5"/>
</g>
<path d="M40.8333 38.0711C40.8333 41.4045 36.6667 43.9045 36.6667 46.4045H33.3333C33.3333 43.9045 29.1667 41.4045 29.1667 38.0711C29.1667 34.8545 31.7833 32.2378 35 32.2378C38.2167 32.2378 40.8333 34.8545 40.8333 38.0711ZM36.6667 48.0711H33.3333V50.5711H36.6667V48.0711ZM46.6667 37.2378C46.6667 40.0378 45.6833 42.5878 44.0333 44.6045L46.4 46.9711C47.6815 45.4756 48.6552 43.7418 49.2651 41.8691C49.8751 39.9965 50.1094 38.0218 49.9545 36.0584C49.7997 34.095 49.2588 32.1815 48.3628 30.4276C47.4668 28.6737 46.2334 27.114 44.7333 25.8378L42.3667 28.2045C43.7091 29.2965 44.7915 30.6738 45.5352 32.2363C46.279 33.7988 46.6655 35.5073 46.6667 37.2378ZM41.6667 23.9045L35 17.2378V22.2378C31.0218 22.2378 27.2064 23.8181 24.3934 26.6312C21.5804 29.4442 20 33.2595 20 37.2378C20 40.9545 21.3667 44.3545 23.6 46.9711L25.9667 44.6045C24.2597 42.5294 23.3286 39.9247 23.3333 37.2378C23.3333 30.8045 28.5667 25.5711 35 25.5711V30.5711L41.6667 23.9045Z" fill="url(#paint2_linear_551_4683)"/>
<defs>
<filter id="filter0_bi_551_4683" x="-5" y="-5" width="80" height="80" filterUnits="userSpaceOnUse" color-interpolation-filters="sRGB">
<feFlood flood-opacity="0" result="BackgroundImageFix"/>
<feGaussianBlur in="BackgroundImage" stdDeviation="2.5"/>
<feComposite in2="SourceAlpha" operator="in" result="effect1_backgroundBlur_551_4683"/>
<feBlend mode="normal" in="SourceGraphic" in2="effect1_backgroundBlur_551_4683" result="shape"/>
<feColorMatrix in="SourceAlpha" type="matrix" values="0 0 0 0 0 0 0 0 0 0 0 0 0 0 0 0 0 0 127 0" result="hardAlpha"/>
<feOffset dx="2" dy="2"/>
<feGaussianBlur stdDeviation="2.5"/>
<feComposite in2="hardAlpha" operator="arithmetic" k2="-1" k3="1"/>
<feColorMatrix type="matrix" values="0 0 0 0 1 0 0 0 0 1 0 0 0 0 1 0 0 0 0.15 0"/>
<feBlend mode="normal" in2="shape" result="effect2_innerShadow_551_4683"/>
</filter>
<linearGradient id="paint0_linear_551_4683" x1="-2" y1="-2" x2="81.5" y2="73.5" gradientUnits="userSpaceOnUse">
<stop stop-color="white" stop-opacity="0.4"/>
<stop offset="1" stop-color="white"/>
</linearGradient>
<linearGradient id="paint1_linear_551_4683" x1="1.5" y1="-8.5" x2="70" y2="72" gradientUnits="userSpaceOnUse">
<stop stop-color="#FCB045"/>
<stop offset="0.395949" stop-color="#FCB045" stop-opacity="0.03"/>
<stop offset="0.744924" stop-color="#FCB045" stop-opacity="0"/>
<stop offset="1" stop-color="#FCB045" stop-opacity="0"/>
</linearGradient>
<linearGradient id="paint2_linear_551_4683" x1="13.4996" y1="11.1269" x2="77.4799" y2="63.2969" gradientUnits="userSpaceOnUse">
<stop offset="0.369906" stop-color="#FCB045"/>
<stop offset="1" stop-color="#FD1D1D"/>
</linearGradient>
</defs>
</svg>
