<svg width="70" height="70" viewBox="0 0 70 70" fill="none" xmlns="http://www.w3.org/2000/svg">
<g filter="url(#filter0_bi_551_4723)">
<rect width="70" height="70" rx="15" fill="url(#paint0_linear_551_4723)" fill-opacity="0.2"/>
<rect x="0.25" y="0.25" width="69.5" height="69.5" rx="14.75" stroke="url(#paint1_linear_551_4723)" stroke-width="0.5"/>
</g>
<path d="M30.5006 31.5448C30.5161 30.3589 30.9952 29.2259 31.8356 28.3873C32.6761 27.5487 33.8115 27.0707 35 27.0552C36.1885 27.0707 37.3239 27.5487 38.1644 28.3873C39.0048 29.2259 39.4839 30.3589 39.4994 31.5448C39.4839 32.7307 39.0048 33.8637 38.1644 34.7023C37.3239 35.5409 36.1885 36.0189 35 36.0344C33.8115 36.0189 32.6761 35.5409 31.8356 34.7023C30.9952 33.8637 30.5161 32.7307 30.5006 31.5448ZM35 45.0137L40.9992 46.5102V41.9009C39.1899 42.9881 37.1118 43.5479 35 43.5171C32.8882 43.5479 30.8101 42.9881 29.0008 41.9009V46.5102L35 45.0137ZM35 22.5655C33.8181 22.544 32.6443 22.7639 31.5507 23.2117C30.4571 23.6595 29.4669 24.3258 28.6409 25.1695C27.7861 25.9947 27.1107 26.9865 26.6566 28.0832C26.2025 29.18 25.9794 30.3583 26.0012 31.5448C25.9856 32.7238 26.2117 33.8935 26.6656 34.9821C27.1195 36.0707 27.7917 37.0552 28.6409 37.8752C29.463 38.727 30.4516 39.4016 31.5453 39.8572C32.6391 40.3128 33.8149 40.5398 35 40.5241C36.1851 40.5398 37.3609 40.3128 38.4547 39.8572C39.5484 39.4016 40.537 38.727 41.3591 37.8752C42.2083 37.0552 42.8805 36.0707 43.3344 34.9821C43.7883 33.8935 44.0144 32.7238 43.9988 31.5448C44.0206 30.3583 43.7975 29.18 43.3434 28.0832C42.8893 26.9865 42.2139 25.9947 41.3591 25.1695C40.5331 24.3258 39.5429 23.6595 38.4493 23.2117C37.3557 22.7639 36.1819 22.544 35 22.5655ZM46.9984 31.5448C46.9664 32.9813 46.6769 34.4005 46.1435 35.7351C45.6629 37.0931 44.9359 38.3512 43.9988 39.4465V50.9999L35 48.0068L26.0012 50.9999V39.4465C24.06 37.2712 22.9919 34.4575 23.0016 31.5448C22.9752 29.9743 23.2716 28.4151 23.8727 26.9633C24.4737 25.5116 25.3666 24.1982 26.4962 23.1043C27.5966 21.9671 28.9189 21.0669 30.3815 20.4595C31.8441 19.852 33.4159 19.5501 35 19.5724C36.5841 19.5501 38.1559 19.852 39.6185 20.4595C41.0811 21.0669 42.4034 21.9671 43.5038 23.1043C44.6334 24.1982 45.5263 25.5116 46.1273 26.9633C46.7284 28.4151 47.0248 29.9743 46.9984 31.5448Z" fill="url(#paint2_linear_551_4723)"/>
<defs>
<filter id="filter0_bi_551_4723" x="-5" y="-5" width="80" height="80" filterUnits="userSpaceOnUse" color-interpolation-filters="sRGB">
<feFlood flood-opacity="0" result="BackgroundImageFix"/>
<feGaussianBlur in="BackgroundImage" stdDeviation="2.5"/>
<feComposite in2="SourceAlpha" operator="in" result="effect1_backgroundBlur_551_4723"/>
<feBlend mode="normal" in="SourceGraphic" in2="effect1_backgroundBlur_551_4723" result="shape"/>
<feColorMatrix in="SourceAlpha" type="matrix" values="0 0 0 0 0 0 0 0 0 0 0 0 0 0 0 0 0 0 127 0" result="hardAlpha"/>
<feOffset dx="2" dy="2"/>
<feGaussianBlur stdDeviation="2.5"/>
<feComposite in2="hardAlpha" operator="arithmetic" k2="-1" k3="1"/>
<feColorMatrix type="matrix" values="0 0 0 0 1 0 0 0 0 1 0 0 0 0 1 0 0 0 0.15 0"/>
<feBlend mode="normal" in2="shape" result="effect2_innerShadow_551_4723"/>
</filter>
<linearGradient id="paint0_linear_551_4723" x1="-2" y1="-2" x2="81.5" y2="73.5" gradientUnits="userSpaceOnUse">
<stop stop-color="white" stop-opacity="0.4"/>
<stop offset="1" stop-color="white"/>
</linearGradient>
<linearGradient id="paint1_linear_551_4723" x1="1.5" y1="-8.5" x2="70" y2="72" gradientUnits="userSpaceOnUse">
<stop stop-color="#FCB045"/>
<stop offset="0.395949" stop-color="#FCB045" stop-opacity="0.03"/>
<stop offset="0.744924" stop-color="#FCB045" stop-opacity="0"/>
<stop offset="1" stop-color="#FCB045" stop-opacity="0"/>
</linearGradient>
<linearGradient id="paint2_linear_551_4723" x1="17.7999" y1="13.8096" x2="75.4294" y2="53.6801" gradientUnits="userSpaceOnUse">
<stop offset="0.369906" stop-color="#FCB045"/>
<stop offset="1" stop-color="#FD1D1D"/>
</linearGradient>
</defs>
</svg>
