<svg width="70" height="70" viewBox="0 0 70 70" fill="none" xmlns="http://www.w3.org/2000/svg">
<g filter="url(#filter0_bi_551_4698)">
<rect width="70" height="70" rx="15" fill="url(#paint0_linear_551_4698)" fill-opacity="0.2"/>
<rect x="0.25" y="0.25" width="69.5" height="69.5" rx="14.75" stroke="url(#paint1_linear_551_4698)" stroke-width="0.5"/>
</g>
<path d="M35.2856 19.5713C26.6207 19.5713 19.5713 26.6207 19.5713 35.2856V41.796C19.5713 43.4051 20.9809 44.7141 22.7141 44.7141H24.2856C24.7023 44.7141 25.102 44.5486 25.3967 44.2539C25.6914 43.9592 25.857 43.5595 25.857 43.1427V35.0609C25.857 34.6441 25.6914 34.2444 25.3967 33.9497C25.102 33.655 24.7023 33.4894 24.2856 33.4894H22.8587C23.7324 27.408 28.9653 22.7141 35.2856 22.7141C41.6059 22.7141 46.8387 27.408 47.7124 33.4894H46.2856C45.8688 33.4894 45.4691 33.655 45.1744 33.9497C44.8797 34.2444 44.7141 34.6441 44.7141 35.0609V44.7141C44.7141 46.4474 43.3046 47.857 41.5713 47.857H38.4284V46.2856H32.1427V50.9999H41.5713C45.0379 50.9999 47.857 48.1807 47.857 44.7141C49.5903 44.7141 50.9999 43.4051 50.9999 41.796V35.2856C50.9999 26.6207 43.9504 19.5713 35.2856 19.5713Z" fill="url(#paint2_linear_551_4698)"/>
<defs>
<filter id="filter0_bi_551_4698" x="-5" y="-5" width="80" height="80" filterUnits="userSpaceOnUse" color-interpolation-filters="sRGB">
<feFlood flood-opacity="0" result="BackgroundImageFix"/>
<feGaussianBlur in="BackgroundImage" stdDeviation="2.5"/>
<feComposite in2="SourceAlpha" operator="in" result="effect1_backgroundBlur_551_4698"/>
<feBlend mode="normal" in="SourceGraphic" in2="effect1_backgroundBlur_551_4698" result="shape"/>
<feColorMatrix in="SourceAlpha" type="matrix" values="0 0 0 0 0 0 0 0 0 0 0 0 0 0 0 0 0 0 127 0" result="hardAlpha"/>
<feOffset dx="2" dy="2"/>
<feGaussianBlur stdDeviation="2.5"/>
<feComposite in2="hardAlpha" operator="arithmetic" k2="-1" k3="1"/>
<feColorMatrix type="matrix" values="0 0 0 0 1 0 0 0 0 1 0 0 0 0 1 0 0 0 0.15 0"/>
<feBlend mode="normal" in2="shape" result="effect2_innerShadow_551_4698"/>
</filter>
<linearGradient id="paint0_linear_551_4698" x1="-2" y1="-2" x2="81.5" y2="73.5" gradientUnits="userSpaceOnUse">
<stop stop-color="white" stop-opacity="0.4"/>
<stop offset="1" stop-color="white"/>
</linearGradient>
<linearGradient id="paint1_linear_551_4698" x1="1.5" y1="-8.5" x2="70" y2="72" gradientUnits="userSpaceOnUse">
<stop stop-color="#FCB045"/>
<stop offset="0.395949" stop-color="#FCB045" stop-opacity="0.03"/>
<stop offset="0.744924" stop-color="#FCB045" stop-opacity="0"/>
<stop offset="1" stop-color="#FCB045" stop-opacity="0"/>
</linearGradient>
<linearGradient id="paint2_linear_551_4698" x1="12.7616" y1="13.8096" x2="74.0473" y2="69.3334" gradientUnits="userSpaceOnUse">
<stop offset="0.369906" stop-color="#FCB045"/>
<stop offset="1" stop-color="#FD1D1D"/>
</linearGradient>
</defs>
</svg>
